<svg width="1536" height="1536" viewBox="0 0 1536 1536" xmlns="http://www.w3.org/2000/svg"><path d="M1536 768c0 104-20.333 203.333-61 298s-95.333 176.333-164 245-150.333 123.333-245 164-194 61-298 61c-114.667 0-223.667-24.167-327-72.5S249.667 1347 177 1259c-4.667-6.667-6.833-14.167-6.5-22.5.333-8.333 3.167-15.167 8.5-20.5l137-138c6.667-6 15-9 25-9 10.667 1.333 18.333 5.333 23 12 48.667 63.333 108.333 112.333 179 147s145.667 52 225 52c69.333 0 135.5-13.5 198.5-40.5S1084 1176 1130 1130s82.5-100.5 109.5-163.5S1280 837.333 1280 768s-13.5-135.5-40.5-198.5S1176 452 1130 406s-100.5-82.5-163.5-109.5S837.333 256 768 256c-65.333 0-128 11.833-188 35.5S466.667 349 420 393l137 138c20.667 20 25.333 43 14 69-11.333 26.667-31 40-59 40H64c-17.333 0-32.333-6.333-45-19-12.667-12.667-19-27.667-19-45V128c0-28 13.333-47.667 40-59 26-11.333 49-6.667 69 14l130 129c71.333-67.333 152.833-119.5 244.5-156.5S670 0 768 0c104 0 203.333 20.333 298 61s176.333 95.333 245 164 123.333 150.333 164 245 61 194 61 298z" fill="#85DCEE" fill-rule="nonzero"/></svg>