<svg id="guides" xmlns="http://www.w3.org/2000/svg" viewBox="0 0 256 160"><style>.st0{fill:#289BD2;}</style><g id="XMLID_452_"><path id="XMLID_504_" class="st0" d="M29.9 76.1h9.3l2.1-5.1H46l2.1 5.1h18.4v-3.9l1.6 3.9h9.6l1.6-3.9v3.9H125v-8.3h.9c.6 0 .8.1.8 1.1v7.2h23.6v-1.9c1.9 1 4.9 1.9 8.8 1.9h10l2.1-5.1h4.7l2.1 5.1h19.2v-4.8l2.9 4.8h15.4V44.2h-15.3V48l-2.1-3.8h-15.7V48l-1.9-3.8h-21.1c-3.5 0-6.7.5-9.1 1.9v-1.9h-14.5v1.9c-1.6-1.4-3.8-1.9-6.2-1.9h-53l-3.5 8.2-3.7-8.2H52.8V48l-1.9-3.8H36.6l-6.7 15.2v16.7zm181-4.4h-7.7l-10.4-17.2v17.2h-11.1l-2.1-5.1h-11.4l-2 5.1h-6.4c-2.7 0-6.1-.6-8-2.5-1.9-2-2.9-4.5-2.9-8.7 0-3.4.6-6.6 2.9-9 1.8-1.9 4.5-2.7 8.3-2.7h5.3v4.9h-5.2c-2 0-3.2.3-4.3 1.4-.9 1-1.5 2.8-1.5 5.2 0 2.4.5 4.2 1.5 5.4.9.9 2.4 1.1 3.8 1.1h2.5l7.7-18.1h8.2l9.2 21.7V48.7h8.3l9.6 15.9V48.7h5.6l.1 23zm-64.8 0h-5.6v-23h5.6v23zm-8.9-16.8c0 3.7-2.4 5.6-3.9 6.1 1.1.5 2.3 1.3 2.7 1.9.8 1.1.9 2.1.9 4.2v4.5h-5.6v-2.9c0-1.4.1-3.4-.9-4.4-.8-.8-2-1-4-1h-5.9v8.3H115V48.7h12.6c2.8 0 4.8.1 6.6 1.1 2 1.1 3 2.6 3 5.1zm-25.7 16.8H93.2v-23h18.3v4.8H98.7v4.2h12.5v4.7H98.7v4.5h12.8v4.8zm-22.4 0h-5.6V53.8l-8 17.9h-4.8l-8-17.9v17.9h-11l-2.1-5.1H38.2l-2.1 5.1h-5.9l9.6-23H48l9.3 21.7V48.7h9l7.2 15.5L80 48.7h9.1v23zm88.4-10l-3.8-9.1-3.8 9.1h7.6zM130 58.2c-.8.4-1.6.5-2.7.5h-6.7v-5.1h6.7c1 0 2 0 2.7.4.8.4 1.1 1 1.1 2 .1.9-.3 1.8-1.1 2.2zm-82.5 3.5l-3.8-9.1-3.8 9.1h7.6z"/><path id="XMLID_515_" class="st0" d="M136.1 95.8c0 6.3-4.8 7.7-9.6 7.7h-6.8v7.7h-10.6l-6.7-7.6-7.1 7.6H73.6v-23h22l6.7 7.5 6.9-7.5h17.7c4.3 0 9.2 1.2 9.2 7.6zm-43.6 10.5H79.1v-4.5h12v-4.7h-12v-4.2h13.6l5.9 6.7c.1 0-6.1 6.7-6.1 6.7zm21.8 2.8l-8.5-9.3 8.5-9.1v18.4zm12.6-10.4h-7.1v-5.8h7.2c2 0 3.4.8 3.4 2.8-.2 2-1.5 3-3.5 3zm36.9-10.5h18.3V93h-12.9v4.2h12.5v4.7h-12.5v4.5h12.9v4.8h-18.3v-23zm-7 12.3c1.3.5 2.3 1.3 2.7 1.9.8 1.1.9 2.1.9 4.2v4.5h-5.6v-2.9c0-1.4.1-3.4-.9-4.4-.8-.9-2-1-4-1h-5.8v8.3h-5.6V88.2h12.6c2.8 0 4.8.1 6.6 1.1 1.8 1 2.8 2.5 2.8 5.1.2 3.6-2.2 5.5-3.7 6.1zm-3.3-2.9c-.8.4-1.6.5-2.7.5h-6.7v-5.2h6.7c1 0 1.9 0 2.7.4.8.4 1.1 1.1 1.1 2 .1 1.1-.3 1.9-1.1 2.3zM203 99c1.1 1.1 1.6 2.5 1.6 4.8 0 4.9-3 7.2-8.6 7.2h-10.7v-5H196c1 0 1.8-.1 2.3-.5.4-.4.6-.9.6-1.5s-.3-1.3-.6-1.5c-.4-.4-1-.5-1.9-.5-5.2-.1-11.5.1-11.5-7.1 0-3.3 2.1-6.8 7.8-6.8h11V93h-10.1c-1 0-1.6 0-2.1.4-.6.4-.8.9-.8 1.6 0 .9.5 1.4 1.1 1.6s1.1.3 2.1.3l2.9.1c2.9.3 5 .8 6.2 2zm21.9 9.2c-1.4 2-3.9 2.9-7.5 2.9h-10.6v-4.9h10.5c1 0 1.8-.1 2.3-.5.4-.4.6-.9.6-1.5s-.3-1.3-.6-1.5c-.4-.4-1-.5-1.9-.5-5.2-.1-11.6.1-11.6-7.1 0-3.3 2.1-6.8 7.8-6.8h10.9v-4.5h-10.1c-3 0-5.3.8-6.8 1.9v-1.9h-15c-2.4 0-5.2.6-6.6 1.9v-1.9h-26.8v1.9c-2.1-1.5-5.7-1.9-7.5-1.9h-17.7v1.9c-1.6-1.6-5.4-1.9-7.7-1.9h-19.8l-4.5 4.9-4.3-5H68.7v31.9h29l4.7-4.9 4.4 4.9h17.8V108h1.8c2.4 0 5.2 0 7.6-1.1v8.6h14.8v-8.3h.8c.9 0 1 0 1 .9v7.5h44.7c2.8 0 5.8-.8 7.5-2v2h14.1c2.9 0 5.8-.4 8.1-1.5-.1-.1-.1-5.9-.1-5.9zm0-15.2h-10c-1 0-1.6 0-2.1.4-.6.4-.8.9-.8 1.6 0 .9.5 1.4 1.3 1.6.5.3 1.1.3 2.1.3l2.9.1c3 .1 5.1.6 6.2 1.9.3.1.4.4.5.6V93h-.1z"/></g></svg>