<svg xmlns="http://www.w3.org/2000/svg" viewBox="0 0 256 160"><style>.st0{fill:#FFFFFF;} .st1{fill:#007DC5;} .st2{fill:#00A2E5;} .st3{fill:#003375;}</style><g id="Layer_1"><g id="XMLID_145_"><g id="XMLID_146_"><g id="XMLID_147_"><g id="XMLID_148_"><path id="XMLID_149_" class="st0" d="M200.2 106.2c0-.8.7-1.5 1.5-1.5s1.5.7 1.5 1.5-.7 1.5-1.5 1.5-1.5-.7-1.5-1.5zm1.5 1.1c.6 0 1.2-.5 1.2-1.2 0-.6-.5-1.2-1.2-1.2-.6 0-1.2.5-1.2 1.2.1.7.6 1.2 1.2 1.2zm-.2-.5h-.3v-1.3h.6c.1 0 .2 0 .3.1.1.1.2.2.2.3 0 .2-.1.3-.2.3l.2.6h-.3l-.2-.5h-.2v.5zm0-.7h.4c.1 0 .1-.1.1-.2 0 0 0-.1-.1-.1h-.4v.3z"/></g></g></g></g><g id="XMLID_158_"><g id="XMLID_159_"><circle id="XMLID_160_" class="st1" cx="96.5" cy="80" r="47"/><g id="XMLID_161_"><path id="XMLID_162_" class="st2" d="M159.5 33c-12.1 0-23.2 4.6-31.5 12.2-1.7 1.5-3.3 3.2-4.7 5h9.5c1.3 1.6 2.5 3.2 3.6 5h-16.6c-1 1.6-1.9 3.3-2.7 5H139c.8 1.6 1.4 3.3 2 5h-26c-.5 1.6-1 3.3-1.4 5h28.8c.7 3.2 1.1 6.5 1.1 9.9 0 5.2-.9 10.2-2.4 14.9h-26c.6 1.7 1.2 3.4 2 5H139c-.8 1.7-1.7 3.4-2.7 5h-16.6c1.1 1.7 2.3 3.4 3.6 5h9.5c-1.5 1.8-3 3.4-4.7 5 8.3 7.6 19.4 12.2 31.5 12.2 25.9 0 47-21 47-47-.1-26.1-21.1-47.2-47.1-47.2z"/></g></g><g id="XMLID_163_"><g id="XMLID_164_"><g id="XMLID_165_"><g id="XMLID_166_"><path id="XMLID_167_" class="st3" d="M93.8 69.2c-.4 1.8-.6 2.9-1.2 5.1-3.5-1.5-8.3-2.3-11.9 0-3.4 2.2-4.6 5.6-4.3 9.4.3 1.8 1.6 3.6 3.5 4.4 3.3 1.2 6.5.8 10-1-.5 2.3-.9 4.1-1.3 5.7-4.2 1.2-8.3 1.6-12.5.2-3.8-1.3-6.9-4.7-7.1-8.4-.9-5.9 2-11.9 7.7-14.7 5.3-2.5 11.4-2.1 17.1-.7z"/></g><path id="XMLID_168_" class="st3" d="M153.6 90.2c-1.1 1.1-3 3.6-8.2 3.6-4.7 0-8-3.5-6.3-11.2l1.9-9.2h7.2l-1.9 9.2c-.7 3.1-.5 5.5 2.7 5.5 3.7 0 4.8-2.3 5.5-5.5l1.9-9.2h7.5l-3.2 14.7c-.4 1.7-.7 3.6-.9 5.4H153s.5-2.5.6-3.3z"/><path id="XMLID_170_" class="st3" d="M166.3 79.8c0 2.5 1.7 4.3 5.5 5.6 2.9 1 3.4 1.3 3.4 2.2 0 1.3-1.3 1.8-4.1 1.8-2.2 0-4.1-.2-6.5-.8 0 0-.9 4.2-1 4.6 2 .4 5.5.6 7.5.6 7.6 0 11.1-2.1 11.1-6.7 0-2.7-1.5-4.3-5.1-5.6-3-1-3.4-1.2-3.4-2.2 0-1.1 1.2-1.6 3.5-1.6 1.4 0 3.4.1 5.2.3l1-4.7c-1.9-.2-4.7-.4-6.3-.4-8 .1-10.8 3.2-10.8 6.9z"/><path id="XMLID_171_" class="st3" d="M96.5 73.4h7.5l-4.3 20.1h-7.5z"/><path id="XMLID_172_" class="st3" d="M139.3 73.3c-5.3-.7-6.8 1.9-8.2 3.2.2-1 .5-2.1.4-3.1h-6.9c-.9 6.2-2.6 12.5-3.9 18.7l-.3 1.3h7.8c.9-4.1 1.9-10.2 3.1-12.1 1.2-1.9 3.2-3.3 5.8-2.5l2.2-5.5z"/><path id="XMLID_173_" class="st3" d="M123 73.3c-5.3-.7-6.8 1.9-8.2 3.2.2-1 .5-2.1.4-3.1h-6.9c-.9 6.2-2.6 12.5-3.9 18.7l-.3 1.3h7.8c.9-4.1 1.9-10.2 3.1-12.1 1.2-1.9 3.2-3.3 5.8-2.5l2.2-5.5z"/></g></g><g id="XMLID_174_"><path id="XMLID_175_" class="st0" d="M184.5 90.5c0-.8.7-1.5 1.5-1.5s1.5.7 1.5 1.5-.7 1.5-1.5 1.5c-.9 0-1.5-.7-1.5-1.5zm1.5 1.1c.6 0 1.2-.5 1.2-1.2 0-.6-.5-1.2-1.2-1.2-.6 0-1.2.5-1.2 1.2s.5 1.2 1.2 1.2zm-.2-.4h-.3v-1.3h.6c.1 0 .2 0 .3.1.1.1.2.2.2.3 0 .1-.1.3-.2.3l.2.6h-.3l-.2-.5h-.2v.5zm0-.8h.4c.1 0 .1-.1.1-.2s0-.1-.1-.1h-.4v.3z"/><path id="XMLID_184_" class="st0" d="M95.2 67.8c-.4 1.8-.6 2.9-1.2 5.1-3.5-1.5-8.3-2.3-11.9 0-3.4 2.2-4.6 5.6-4.3 9.4.3 1.8 1.6 3.6 3.5 4.4 3.3 1.2 6.5.8 10-1-.5 2.3-.9 4.1-1.3 5.7-4.2 1.2-8.3 1.6-12.5.2-3.8-1.3-6.9-4.7-7.1-8.4-.9-5.9 2-11.9 7.7-14.7 5.4-2.6 11.5-2.2 17.1-.7z"/><path id="XMLID_185_" class="st0" d="M155.1 88.8c-1.1 1.1-3 3.6-8.2 3.6-4.7 0-7.7-3.5-6-11.2l1.9-9.2h7.2l-1.9 9.2c-.7 3.1-.5 5.5 2.7 5.5 3.7 0 4.8-2.3 5.5-5.5l1.9-9.2h7.2l-3.2 14.7c-.4 1.7-.7 3.6-.9 5.4h-6.7c-.1-.1.3-2.5.5-3.3z"/><path id="XMLID_187_" class="st0" d="M167.8 78.3c0 2.5 1.7 4.3 5.5 5.6 2.9 1 3.4 1.3 3.4 2.2 0 1.3-1.3 1.8-4.1 1.8-2.2 0-4.1-.2-6.5-.8 0 0-.9 4.2-1 4.6 2 .4 5.5.6 7.5.6 7.6 0 11.1-2.1 11.1-6.7 0-2.7-1.5-4.3-5.1-5.6-3-1-3.4-1.2-3.4-2.2 0-1.1 1.2-1.6 3.5-1.6 1.4 0 3.4.1 5.2.3l1-4.7c-1.9-.2-4.7-.4-6.3-.4-8.1.1-10.9 3.2-10.8 6.9z"/><path id="XMLID_188_" class="st0" d="M98.3 71.9h7.2L101.2 92H94z"/><path id="XMLID_189_" class="st0" d="M140.8 71.9c-5.3-.7-6.8 1.9-8.2 3.2.2-1 .5-2.1.4-3.1h-6.6c-.9 6.2-2.6 12.5-3.9 18.7l-.3 1.3h7.5c.9-4.1 1.9-10.2 3.1-12.1 1.2-1.9 3.2-3.3 5.8-2.5l2.2-5.5z"/><path id="XMLID_190_" class="st0" d="M124.5 71.9c-5.3-.7-6.8 1.9-8.2 3.2.2-1 .5-2.1.4-3.1h-6.6c-.9 6.2-2.6 12.5-3.9 18.7l-.3 1.3h7.5c.9-4.1 1.9-10.2 3.1-12.1 1.2-1.9 3.2-3.3 5.8-2.5l2.2-5.5z"/></g></g></g></g></svg>