<svg id="guides" xmlns="http://www.w3.org/2000/svg" viewBox="0 0 256 160"><style>.st0{fill:#EF7622;}</style><g id="XMLID_282_"><path d="M53.9 67.2h-7.4V93h7.4c3.9 0 6.8-.9 9.2-3 3-2.4 4.7-6.1 4.7-9.9 0-7.6-5.7-12.9-13.9-12.9zm5.9 19.4c-1.6 1.4-3.6 2.1-6.9 2.1h-1.4V71.5h1.4c3.3 0 5.2.6 6.9 2.1 1.7 1.6 2.8 4 2.8 6.4 0 2.6-1.1 5-2.8 6.6z"/><path id="XMLID_383_" d="M70.1 67.2h5v25.9h-5z"/><path id="XMLID_386_" d="M87.5 77.1c-3-1.1-3.9-1.9-3.9-3.3 0-1.6 1.6-2.9 3.8-2.9 1.5 0 2.8.6 4.1 2.1l2.6-3.5c-2.2-1.9-4.8-2.9-7.6-2.9-4.6 0-8.1 3.2-8.1 7.4 0 3.6 1.6 5.4 6.4 7.1 2 .7 3 1.2 3.5 1.5 1 .7 1.5 1.6 1.5 2.7 0 2.1-1.7 3.7-3.9 3.7-2.4 0-4.3-1.2-5.5-3.5l-3.3 3.1c2.3 3.4 5.1 4.9 9 4.9 5.2 0 8.9-3.5 8.9-8.5-.1-3.9-1.8-5.8-7.5-7.9z"/><path id="XMLID_387_" d="M96.5 80.1c0 7.6 6 13.5 13.7 13.5 2.2 0 4-.4 6.3-1.5v-5.9c-2 2-3.8 2.8-6.1 2.8-5.1 0-8.7-3.7-8.7-8.9 0-5 3.7-8.9 8.5-8.9 2.4 0 4.2.9 6.3 2.9v-5.9c-2.2-1.1-4-1.6-6.2-1.6-7.6 0-13.8 6-13.8 13.5z"/><path id="XMLID_388_" d="M156.6 84.5l-6.9-17.3h-5.6l11 26.5h2.7L169 67.2h-5.4z"/><path id="XMLID_389_" d="M171.3 93h14.3v-4.3h-9.2v-7h8.9v-4.4h-8.9v-5.8h9.2v-4.3h-14.3z"/><path d="M205.6 74.8c0-4.8-3.3-7.6-9.2-7.6H189V93h5V82.6h.7l7 10.4h6.2l-8.1-10.9c3.7-.7 5.8-3.3 5.8-7.3zm-10.1 4.3H194v-7.8h1.6c3.1 0 4.9 1.3 4.9 3.8-.1 2.6-1.8 4-5 4z"/><path id="XMLID_390_" class="st0" d="M145.7 80.1c0 7.6-6.2 13.8-13.8 13.8-7.6 0-13.8-6.2-13.8-13.8 0-7.6 6.2-13.8 13.8-13.8 7.6.1 13.8 6.2 13.8 13.8z"/><path d="M208.3 67.7c0-.5-.3-.7-.9-.7h-.7v2.3h.5v-.9l.6.9h.7l-.7-.9c.3-.2.5-.4.5-.7zm-.9.3l-.1-.6h.1c.3 0 .4.1.4.3 0 .2-.2.3-.4.3z"/><path d="M207.6 66.1c-1.1 0-2 .9-2 2s.9 2 2 2 2-.9 2-2c-.1-1.1-1-2-2-2zm0 3.6c-.9 0-1.6-.7-1.6-1.6 0-.9.7-1.6 1.6-1.6.9 0 1.6.7 1.6 1.6-.1.9-.8 1.6-1.6 1.6z"/></g><path id="XMLID_382_" class="st0" d="M255.8 110.4s-48.5 34.2-137.4 49.6h137.4v-49.6z"/></svg>