<svg id="Layer_1" xmlns="http://www.w3.org/2000/svg" viewBox="0 0 256 160"><style>.st0{fill:#ED1C24;} .st1{fill:#00A2E5;} .st2{fill:#FFFFFF;} .st3{fill:#003375;}</style><g id="XMLID_2_"><g id="XMLID_15_"><circle id="XMLID_124_" class="st0" cx="159.5" cy="80" r="46.8"/><g id="XMLID_16_"><path id="XMLID_123_" class="st1" d="M123.3 109.7c-1.3-1.6-2.5-3.2-3.6-5h16.6c1-1.6 1.9-3.2 2.7-5h-22c-.7-1.6-1.4-3.3-2-5h26c1.6-4.7 2.4-9.7 2.4-14.9 0-3.4-.4-6.7-1.1-9.9h-28.7c.4-1.7.8-3.3 1.4-5h26c-.6-1.7-1.2-3.4-2-5h-22c.8-1.7 1.7-3.4 2.7-5h16.6c-1.1-1.7-2.3-3.4-3.6-5h-9.5c1.5-1.8 3-3.4 4.7-5-8.3-7.5-19.3-12.1-31.5-12.1-25.9 0-46.8 21-46.8 46.8 0 25.9 21 46.8 46.8 46.8 12.1 0 23.1-4.6 31.5-12.1 1.7-1.5 3.3-3.2 4.7-5h-9.3z"/></g></g><g id="XMLID_17_"><path id="XMLID_97_" class="st2" d="M200 106.1c0-.8.7-1.5 1.5-1.5s1.5.7 1.5 1.5-.7 1.5-1.5 1.5-1.5-.7-1.5-1.5zm1.6 1.2c.6 0 1.2-.5 1.2-1.2 0-.6-.5-1.1-1.2-1.1-.6 0-1.2.5-1.2 1.1 0 .6.5 1.2 1.2 1.2zm-.2-.5h-.4v-1.3h.6c.1 0 .2 0 .3.1.1.1.2.2.2.3 0 .2-.1.3-.2.3l.2.6h-.3l-.2-.5h-.2v.5zm0-.8h.4c.1 0 .1-.1.1-.2 0 0 0-.1-.1-.1h-.4v.3z"/></g></g><g id="XMLID_102_"><g id="XMLID_103_"><path id="XMLID_104_" class="st3" d="M127.3 92.7c-2 .5-3.9.8-6 .8-6.5 0-9.9-3-9.9-8.7 0-6.6 4.3-11.5 10.2-11.5 4.8 0 7.9 2.7 7.9 7 0 1.4-.2 2.8-.7 4.8h-11.6c-.4 2.8 1.6 4 5.1 4 2.1 0 3.9-.4 6-1.2l-1 4.8zm-3.1-11.6c0-.4.6-3.4-2.7-3.5-1.9 0-3.2 1.2-3.7 3.5h6.4z"/><path id="XMLID_116_" class="st3" d="M131.3 79.8c0 2.5 1.4 4.1 4.5 5.4 2.4 1 2.8 1.3 2.8 2.1 0 1.2-1.1 1.8-3.4 1.8-1.8 0-3.4-.2-5.3-.8l-.8 4.5c1.7.4 4.1.5 6.2.6 6.3 0 9.2-2.1 9.2-6.5 0-2.7-1.2-4.2-4.2-5.4-2.5-1-2.8-1.2-2.8-2.1 0-1.1 1-1.6 2.9-1.6 1.2 0 2.8.1 4.3.3l.8-4.5c-1.5-.2-3.9-.4-5.2-.4-6.8 0-9.1 3-9 6.6z"/><path id="XMLID_105_" class="st3" d="M108.2 93.1h-4.9l.1-2c-1.5 1.6-3.5 2.4-6.1 2.4-3.2 0-5.4-2.2-5.4-5.3 0-4.7 3.8-7.5 10.3-7.5.7 0 1.5.1 2.4.1.2-.6.2-.9.2-1.3 0-1.3-1-1.8-3.8-1.8-2.7 0-4.5.4-6.2.9l.8-4.4c2.9-.7 4.8-1 7-1 5 0 7.7 2 7.7 5.7 0 1-.3 3-.5 3.9 0 1.3-1.4 8.6-1.6 10.3zm-4.2-8.6c-.6-.1-.9-.1-1.3-.1-3.3 0-5 1-5 2.9 0 1.2.8 2 2.1 2 2.3 0 4.1-2 4.2-4.8z"/><path id="XMLID_113_" class="st3" d="M154.6 92.8c-1.6.4-2.8.6-4.2.6-3 0-4.6-1.5-4.6-4.2-.1-.7.6-4.2.8-5.2.2-1 2.7-15 2.7-15h5.8l-.9 4.6h3l-.8 4.7h-3s-1.6 8.2-1.6 8.9c0 1 .6 1.4 2 1.4.7 0 1.2-.1 1.6-.2l-.8 4.4z"/><path id="XMLID_106_" class="st3" d="M180.5 73.2c-4.2 0-7.6 1.8-9.5 4.7l1.7-4.3c-3.1-1.1-5.1.5-6.9 2.8 0 0-.3.4-.6.7v-3.4h-5.4c-.7 6-2 12.1-3.1 18.1l-.2 1.3h5.9c.6-3.1 1-5.5 1.5-7.5 1.2-5.4 3.3-7.1 6.5-6.3-.7 1.6-1.1 3.4-1.1 5.4 0 4.9 2.6 8.8 9.2 8.8s11.4-3.5 11.4-11.6c-.2-4.9-3.4-8.7-9.4-8.7zm-1.7 15.5c-2.1 0-3.3-1.7-3.3-4.3 0-3.1 1.8-6.6 4.8-6.6 2.4 0 3.2 1.9 3.2 3.9-.1 4.4-1.8 7-4.7 7z"/><path id="XMLID_110_" class="st3" d="M89.3 93.1h-5.9l3.5-18.2-8 18.2h-5.3l-1-18.1-3.5 18.1h-5.2l4.5-23.7h9.1l.7 13.2L84 69.4h9.8z"/></g><g id="XMLID_107_"><path id="XMLID_108_" class="st2" d="M190.1 90.1c0-.8.7-1.5 1.5-1.5s1.5.7 1.5 1.5-.7 1.5-1.5 1.5-1.5-.6-1.5-1.5zm1.6 1.2c.6 0 1.2-.5 1.2-1.2 0-.6-.5-1.1-1.2-1.1-.6 0-1.2.5-1.2 1.1 0 .7.5 1.2 1.2 1.2zm-.2-.5h-.3v-1.3h.6c.1 0 .2 0 .3.1.1.1.2.2.2.3 0 .2-.1.3-.2.3l.2.6h-.3l-.2-.5h-.2v.5zm0-.7h.4c.1 0 .1-.1.1-.2s0-.1-.1-.1h-.4v.3z"/><path id="XMLID_132_" class="st2" d="M128.8 91.2c-2 .5-3.9.8-6 .8-6.5 0-9.9-3-9.9-8.7 0-6.6 4.3-11.5 10.2-11.5 4.8 0 7.9 2.7 7.9 7 0 1.4-.2 2.8-.7 4.8h-11.6c-.4 2.8 1.6 4 5.1 4 2.1 0 3.9-.4 6-1.2l-1 4.8zm-3.1-11.5c0-.4.6-3.4-2.7-3.5-1.9 0-3.2 1.2-3.7 3.5h6.4z"/><path id="XMLID_135_" class="st2" d="M132.7 78.4c0 2.5 1.4 4.2 4.5 5.4 2.4 1 2.8 1.3 2.8 2.1 0 1.2-1.1 1.8-3.4 1.8-1.8 0-3.4-.2-5.3-.8l-.8 4.5c1.7.4 4.1.5 6.2.6 6.3 0 9.2-2.1 9.2-6.5 0-2.7-1.2-4.2-4.2-5.4-2.5-1-2.8-1.2-2.8-2.1 0-1.1 1-1.6 2.9-1.6 1.2 0 2.8.1 4.3.3l.8-4.5c-1.5-.2-3.9-.4-5.2-.4-6.7 0-9 3-9 6.6z"/><path id="XMLID_136_" class="st2" d="M109.7 91.7h-4.9l.1-2c-1.5 1.6-3.5 2.4-6.1 2.4-3.2 0-5.4-2.2-5.4-5.3 0-4.7 3.8-7.5 10.3-7.5.7 0 1.5.1 2.4.1.2-.6.2-.9.2-1.3 0-1.3-1-1.8-3.8-1.8-2.7 0-4.5.4-6.2.9l.8-4.4c2.9-.7 4.8-1 7-1 5 0 7.7 2 7.7 5.7 0 1-.3 3-.5 3.9-.1 1.2-1.5 8.5-1.6 10.3zm-4.3-8.7c-.6-.1-.9-.1-1.3-.1-3.3 0-5 1-5 2.9 0 1.2.8 2 2.1 2 2.4 0 4.1-1.9 4.2-4.8z"/><path id="XMLID_139_" class="st2" d="M156.1 91.4c-1.6.4-2.8.6-4.2.6-3 0-4.6-1.5-4.6-4.2-.1-.7.6-4.2.8-5.2.2-1 2.8-15 2.8-15h5.8l-.9 4.6h3l-.8 4.7h-3s-1.6 8.2-1.6 8.9c0 1 .6 1.4 2 1.4.7 0 1.2-.1 1.6-.2l-.9 4.4z"/><path id="XMLID_140_" class="st2" d="M184.9 80.3c0 4.4-1.8 7-4.6 7-2.1 0-3.3-1.7-3.3-4.3 0-3.1 1.8-6.6 4.8-6.6 2.3 0 3.1 1.9 3.1 3.9zm6.3.1c0-4.8-3.2-8.6-9.2-8.6-6.9 0-11.4 4.6-11.4 11.4 0 4.9 2.6 8.8 9.2 8.8s11.4-3.5 11.4-11.6z"/><path id="XMLID_143_" class="st2" d="M161.2 72.2c-.7 6-2 12.1-3.1 18.1l-.2 1.3h5.9c2.1-11.6 2.8-14.9 7.2-13.8l2.1-5.5c-3.1-1.1-5.1.5-6.9 2.8.2-1 .5-2 .4-2.9h-5.4z"/><path id="XMLID_144_" class="st2" d="M90.7 91.7h-5.8l3.5-18.3-8 18.3h-5.3l-1-18.2-3.5 18.2h-5.3l4.5-23.8h9.1l.5 14.7 6.4-14.7h9.5z"/></g></g></svg>