<svg id="Layer_1" xmlns="http://www.w3.org/2000/svg" viewBox="0 0 256 160"><style>.st0{fill:#ED1C24;} .st1{fill:#FAA61A;} .st2{fill:#FFFFFF;} .st3{fill:#003375;}</style><g id="XMLID_3_"><g id="XMLID_83_"><g id="XMLID_93_"><circle id="XMLID_96_" class="st0" cx="96.5" cy="80" r="47"/><g id="XMLID_94_"><path id="XMLID_95_" class="st1" d="M159.5 33c-12.1 0-23.2 4.6-31.5 12.2-1.7 1.5-3.3 3.2-4.7 5h9.5c1.3 1.6 2.5 3.2 3.6 5h-16.6c-1 1.6-1.9 3.3-2.7 5H139c.8 1.6 1.4 3.3 2 5h-26c-.5 1.6-1 3.3-1.4 5h28.8c.7 3.2 1.1 6.5 1.1 9.9 0 5.2-.8 10.2-2.4 14.9h-26c.6 1.7 1.2 3.4 2 5H139c-.8 1.7-1.7 3.4-2.7 5h-16.6c1.1 1.7 2.3 3.4 3.6 5h9.5c-1.5 1.8-3 3.4-4.7 5 8.3 7.6 19.4 12.2 31.5 12.2 25.9 0 47-21 47-47-.1-26.1-21.1-47.2-47.1-47.2z"/></g></g><path id="XMLID_84_" class="st2" d="M200.2 106.2c0-.8.7-1.5 1.5-1.5s1.5.7 1.5 1.5-.7 1.5-1.5 1.5-1.5-.7-1.5-1.5zm1.5 1.1c.6 0 1.2-.5 1.2-1.2 0-.6-.5-1.2-1.2-1.2-.6 0-1.2.5-1.2 1.2.1.7.6 1.2 1.2 1.2zm-.2-.5h-.3v-1.3h.6c.1 0 .2 0 .3.1.1.1.2.2.2.3 0 .2-.1.3-.2.3l.2.6h-.3l-.2-.5h-.2v.5zm0-.7h.4c.1 0 .1-.1.1-.2s0-.1-.1-.1h-.4v.3z"/></g><g id="XMLID_4_"><g id="XMLID_60_"><path id="XMLID_78_" class="st3" d="M85.5 85.1c-.5-.1-.8-.1-1.1-.1-2.9 0-4.4 1-4.4 2.9 0 1.2.7 2 1.8 2 2.1.1 3.6-1.9 3.7-4.8zm3.7 8.7H85l.1-2c-1.3 1.6-3 2.3-5.3 2.3-2.8 0-4.7-2.2-4.7-5.3 0-4.7 3.3-7.5 9-7.5.6 0 1.3.1 2.1.1.2-.6.2-.9.2-1.3 0-1.3-.9-1.8-3.3-1.8-2.5 0-4.6.6-5.4.9.1-.3.7-4.4.7-4.4 2.5-.7 4.2-1 6.1-1 4.4 0 6.7 2 6.7 5.7 0 1-.2 2.2-.4 3.8-.5 3-1.4 9-1.6 10.5z"/><path id="XMLID_77_" class="st3" d="M73 93.8h-5.1l2.9-18.3-6.5 18.3h-3.5l-.4-18.2-3.1 18.2h-4.8l4-23.8h7.3l.5 13.3L68.7 70h8.2z"/><path id="XMLID_72_" class="st3" d="M165.8 85.1c-.5-.1-.8-.1-1.1-.1-2.9 0-4.4 1-4.4 2.9 0 1.2.7 2 1.8 2 2.1.1 3.6-1.9 3.7-4.8zm3.7 8.7h-4.2l.1-2c-1.3 1.6-3 2.3-5.3 2.3-2.8 0-4.7-2.2-4.7-5.3 0-4.7 3.3-7.5 8.9-7.5.6 0 1.3.1 2.1.1.2-.6.2-.9.2-1.3 0-1.3-.9-1.8-3.3-1.8-2.5 0-4.6.6-5.4.9.1-.3.7-4.4.7-4.4 2.5-.7 4.2-1 6.1-1 4.4 0 6.7 2 6.7 5.7 0 1-.2 2.2-.4 3.8-.4 3-1.3 9-1.5 10.5z"/><path id="XMLID_71_" class="st3" d="M111.9 93.5c-1.4.4-2.5.6-3.7.6-2.6 0-4-1.5-4-4.3 0-.9.4-3.1.7-5.2l2.2-13.2h5.1l-.6 2.9h3.1L114 79h-3.1c-.6 3.7-1.4 8.3-1.4 8.9 0 1 .5 1.4 1.7 1.4.6 0 1-.1 1.4-.2l-.7 4.4z"/><path id="XMLID_66_" class="st3" d="M127.4 93.3c-1.7.5-3.4.8-5.2.8-5.7 0-8.6-3-8.6-8.6 0-6.6 3.8-11.5 8.9-11.5 4.2 0 6.8 2.7 6.8 7 0 1.4-.2 2.8-.6 4.8h-10.1c-.3 2.8 1.5 4 4.4 4 1.8 0 3.4-.4 5.3-1.2l-.9 4.7zm-2.8-11.5c0-.4.5-3.5-2.4-3.5-1.6 0-2.8 1.2-3.2 3.5h5.6z"/><path id="XMLID_65_" class="st3" d="M92.3 80.5c0 2.4 1.2 4.1 3.9 5.4 2.1 1 2.4 1.3 2.4 2.1 0 1.2-.9 1.8-2.9 1.8-1.5 0-2.9-.2-4.6-.8 0 0-.7 4.3-.7 4.5 1.2.3 2.2.5 5.3.6 5.4 0 7.9-2 7.9-6.5 0-2.7-1-4.2-3.6-5.4-2.1-1-2.4-1.2-2.4-2.1 0-1 .8-1.6 2.5-1.6 1 0 2.4.1 3.7.3l.7-4.5c-1.3-.2-3.3-.4-4.5-.4-5.8.1-7.7 3-7.7 6.6z"/><path id="XMLID_64_" class="st3" d="M152.2 74.5c1.4 0 2.7.4 4.6 1.3l.8-5.2c-.7-.3-3.4-2-5.6-2-3.4 0-6.3 1.7-8.3 4.5-3-1-4.2 1-5.7 3l-1.3.3c.1-.6.2-1.3.2-1.9h-4.7c-.6 6-1.8 12.1-2.7 18.1l-.2 1.3h5.1c.9-5.5 1.3-9.1 1.6-11.5l1.9-1.1c.3-1.1 1.2-1.4 3-1.4-.2 1.3-.4 2.6-.4 4 0 6.3 3.4 10.3 8.9 10.3 1.4 0 2.6-.2 4.5-.7l.9-5.4c-1.7.8-3.1 1.2-4.3 1.2-3 0-4.8-2.2-4.8-5.8 0-5.3 2.7-9 6.5-9z"/><path id="XMLID_61_" class="st3" d="M195.4 70l-1.1 6.9c-1.4-1.8-2.9-3.2-4.9-3.2-2.6 0-4.9 2-6.4 4.8-2.1-.4-4.3-1.2-4.3-1.2.2-1.6.2-2.6.2-2.9h-4.7c-.6 6-1.8 12.1-2.7 18.1l-.2 1.3h5.1c.7-4.5 1.2-8.2 1.6-11.1 1.7-1.6 2.6-2.9 4.4-2.9-.8 1.9-1.2 4.1-1.2 6.3 0 4.8 2.4 8 6.2 8 1.9 0 3.3-.6 4.7-2.1l-.2 1.8h4.8l3.9-23.8h-5.2zM189 89.3c-1.7 0-2.6-1.3-2.6-3.8 0-3.8 1.6-6.5 4-6.5 1.8 0 2.7 1.3 2.7 3.8-.1 3.8-1.7 6.5-4.1 6.5z"/></g><g id="XMLID_5_"><path id="XMLID_59_" class="st2" d="M74.4 92.4h-5.1l3-18.3-6.6 18.3h-3.4l-.5-18.2-3 18.2H54l4-23.9h7.3l.2 14.8 5-14.8h7.9z"/><path id="XMLID_54_" class="st2" d="M87 83.7c-.5-.1-.8-.1-1.1-.1-2.9 0-4.4 1-4.4 2.9 0 1.2.7 2 1.8 2 2.1.1 3.6-1.9 3.7-4.8zm3.7 8.7h-4.2l.1-2c-1.3 1.6-3 2.3-5.3 2.3-2.8 0-4.7-2.2-4.7-5.3 0-4.7 3.3-7.5 9-7.5.6 0 1.3.1 2.1.2.2-.6.2-.9.2-1.3 0-1.3-.9-1.8-3.3-1.8-2.5 0-4.6.6-5.4.9.1-.3.7-4.4.7-4.4 2.5-.7 4.2-1 6.1-1 4.4 0 6.7 2 6.7 5.7 0 1-.2 2.2-.4 3.8-.5 2.9-1.5 8.9-1.6 10.4z"/><path id="XMLID_53_" class="st2" d="M159.1 69.2l-.8 5.2c-1.8-.9-3.1-1.3-4.6-1.3-3.8 0-6.5 3.7-6.5 8.9 0 3.6 1.8 5.8 4.8 5.8 1.3 0 2.6-.4 4.3-1.2l-.9 5.4c-1.9.5-3.1.7-4.5.7-5.5 0-8.9-3.9-8.9-10.3 0-8.5 4.7-14.5 11.5-14.5 2.2 0 4.8 1 5.6 1.3z"/><path id="XMLID_48_" class="st2" d="M167.3 83.7c-.5-.1-.8-.1-1.1-.1-2.9 0-4.4 1-4.4 2.9 0 1.2.7 2 1.8 2 2.1.1 3.6-1.9 3.7-4.8zm3.7 8.7h-4.2l.1-2c-1.3 1.6-3 2.3-5.3 2.3-2.8 0-4.7-2.2-4.7-5.3 0-4.7 3.3-7.5 8.9-7.5.6 0 1.3.1 2.1.2.2-.6.2-.9.2-1.3 0-1.3-.9-1.8-3.3-1.8-2.5 0-4.5.6-5.4.9.1-.3.7-4.4.7-4.4 2.5-.7 4.2-1 6.1-1 4.4 0 6.7 2 6.7 5.7 0 1-.2 2.2-.4 3.8-.4 2.9-1.4 8.9-1.5 10.4z"/><path id="XMLID_47_" class="st2" d="M113.3 92.1c-1.4.4-2.5.6-3.7.6-2.6 0-4-1.5-4-4.3 0-.9.4-3.1.7-5.2l2.2-13.2h5.1l-.6 3h2.6l-.7 4.7h-2.6c-.6 3.7-1.4 8.3-1.4 8.9 0 1 .5 1.4 1.7 1.4.6 0 1-.1 1.4-.2l-.7 4.3z"/><path id="XMLID_42_" class="st2" d="M128.9 91.9c-1.7.5-3.4.8-5.2.8-5.7 0-8.6-3-8.6-8.6 0-6.6 3.8-11.5 8.9-11.5 4.2 0 6.8 2.7 6.8 7 0 1.4-.2 2.8-.6 4.8h-10.1c-.3 2.8 1.5 4 4.4 4 1.8 0 3.5-.4 5.3-1.2l-.9 4.7zM126 80.4c0-.4.5-3.5-2.4-3.5-1.6 0-2.8 1.2-3.2 3.5h5.6z"/><path id="XMLID_41_" class="st2" d="M93.7 79.1c0 2.5 1.2 4.1 3.9 5.4 2.1 1 2.4 1.3 2.4 2.1 0 1.2-.9 1.8-2.9 1.8-1.5 0-2.9-.2-4.6-.8 0 0-.7 4.3-.7 4.5 1.2.3 2.2.5 5.3.6 5.4 0 7.9-2 7.9-6.5 0-2.7-1-4.2-3.6-5.4-2.1-1-2.4-1.2-2.4-2.1 0-1 .8-1.6 2.5-1.6 1 0 2.4.1 3.7.3l.7-4.5c-1.3-.2-3.3-.4-4.5-.4-5.7.1-7.7 3-7.7 6.6z"/><path id="XMLID_36_" class="st2" d="M198 92.4h-4.8l.2-1.8c-1.4 1.5-2.8 2.1-4.7 2.1-3.7 0-6.2-3.2-6.2-8 0-6.4 3.8-11.9 8.3-11.9 2 0 3.5.8 4.9 2.6l1.1-6.9h5L198 92.4zm-7.5-4.5c2.4 0 4-2.7 4-6.5 0-2.5-.9-3.8-2.7-3.8-2.3 0-4 2.7-4 6.5 0 2.5.9 3.8 2.7 3.8z"/><path id="XMLID_35_" class="st2" d="M175.6 73c-.6 6-1.8 12.1-2.7 18.1l-.2 1.3h5.1c1.8-11.8 2.3-14.2 5.1-13.9.5-2.4 1.3-4.5 1.9-5.6-2.1-.4-3.3.8-4.9 3.1.1-1 .3-2 .3-2.9h-4.6z"/><path id="XMLID_34_" class="st2" d="M133.6 73c-.6 6-1.8 12.1-2.7 18.1l-.2 1.3h5.1c1.8-11.8 2.3-14.2 5.1-13.9.5-2.4 1.3-4.5 1.9-5.6-2.1-.4-3.3.8-4.9 3.1.1-1 .3-2 .3-2.9h-4.6z"/><g id="XMLID_6_"><path id="XMLID_7_" class="st2" d="M200.2 90.8c0-.8.7-1.5 1.5-1.5s1.5.7 1.5 1.5-.7 1.5-1.5 1.5c-.8.1-1.5-.6-1.5-1.5zm1.5 1.2c.6 0 1.2-.5 1.2-1.2 0-.6-.5-1.2-1.2-1.2-.6 0-1.2.5-1.2 1.2.1.7.6 1.2 1.2 1.2zm-.2-.5h-.3v-1.3h.6c.1 0 .2 0 .3.1.1.1.2.2.2.3 0 .2-.1.3-.2.3l.2.6h-.3l-.2-.5h-.2v.5zm0-.7h.4c.1 0 .1-.1.1-.2s0-.1-.1-.1h-.4v.3z"/></g></g></g></g></svg>