<svg id="Layer_1" xmlns="http://www.w3.org/2000/svg" viewBox="0 0 256 160"><style>.st0{fill:#0058A0;} .st1{fill:#FAA61A;}</style><g id="XMLID_10_"><g id="XMLID_20_"><path id="XMLID_27_" class="st0" d="M101.8 104.2l7.8-48.3h12.5l-7.8 48.3h-12.5"/><path id="XMLID_26_" class="st0" d="M159.6 57.1c-2.5-1-6.3-2-11.2-2-12.3 0-21 6.6-21.1 15.9-.1 6.9 6.2 10.8 10.9 13.1 4.9 2.4 6.5 3.9 6.5 6 0 3.2-3.9 4.7-7.5 4.7-5 0-7.6-.7-11.7-2.5l-1.6-.8-1.7 10.8c2.9 1.3 8.3 2.5 13.9 2.6 13.1 0 21.6-6.5 21.7-16.5 0-5.5-3.3-9.7-10.5-13.1-4.4-2.2-7-3.7-7-6 0-2 2.3-4.2 7.1-4.2 4.1-.1 7 .9 9.3 1.9l1.1.6 1.8-10.5"/><path id="XMLID_23_" class="st0" d="M191.6 56H182c-3 0-5.2.9-6.5 4L157 104.3h13s2.1-6 2.6-7.3h16c.4 1.7 1.5 7.2 1.5 7.2h11.6L191.6 56m-15.4 31.1c1-2.8 5-13.5 5-13.5-.1.1 1-2.8 1.7-4.6l.8 4.2 2.9 13.9h-10.4z"/><path id="XMLID_22_" class="st0" d="M91.4 55.9l-12.2 33-1.3-6.7c-2.3-7.7-9.4-16.1-17.3-20.3l11.2 42.2H85l19.6-48.2H91.4"/><path id="XMLID_21_" class="st1" d="M67.8 55.9H47.7l-.2 1c15.7 4 26 13.7 30.3 25.3L73.5 60c-.8-3.1-3-4-5.7-4.1z"/></g><g id="XMLID_11_"><path id="XMLID_12_" class="st0" d="M205.7 98.5c1.5 0 2.8 1.2 2.8 2.8 0 1.5-1.2 2.8-2.8 2.8-1.5 0-2.8-1.2-2.8-2.8 0-1.6 1.3-2.8 2.8-2.8zm0 5.1c1.3 0 2.2-1 2.2-2.3 0-1.3-1-2.3-2.2-2.3-1.3 0-2.2 1-2.2 2.3 0 1.2.9 2.3 2.2 2.3zm-1-3.8h1.2c.3 0 .9.1.9.8 0 .2-.1.5-.5.6.4.1.4.4.4.7 0 .4 0 .5.1.7h-.5c-.1-.1-.1-.2-.1-.6 0-.3 0-.5-.6-.5h-.4v1.1h-.5v-2.8zm.5 1.3h.6c.4 0 .5-.2.5-.4 0-.3-.2-.4-.6-.4h-.5v.8z"/></g></g></svg>