<svg id="Layer_1" xmlns="http://www.w3.org/2000/svg" viewBox="0 0 256 160"><style>.st0{fill-rule:evenodd;clip-rule:evenodd;fill:#FAA61B;} .st1{fill-rule:evenodd;clip-rule:evenodd;fill:#0059A1;}</style><g id="XMLID_230_"><path id="XMLID_246_" class="st0" d="M85.1 90.4c19.9-8.5 47.8-16.3 84.8-8.5l.4-9.4c-39-4.3-67 8.2-85.2 17v.9z"/><g id="XMLID_247_"><path id="XMLID_245_" class="st1" d="M49.2 97.3h18.7v5.6H56.3l-.1 5.2h11.6v5.5H56.1l.1 5.2h11.5v5.6H49.2V97.3z"/><path id="XMLID_244_" class="st1" d="M72.6 95h6.8l.1 29.4h-6.9V95z"/><path class="st1" d="M102.9 122.2c-2.3 2-5.8 2.9-9 2.9-7.2 0-10.4-5.1-10.4-10.2 0-6 4.5-11 10.6-11 7.5 0 9.9 5.3 9.9 12.1H90.3c0 1.5 1 4.1 4.7 4.1 2.4 0 3.7-.7 5.6-2l2.3 4.1zm-5-10.1c0-2-1-3.9-3.3-3.9-2.2 0-3.8 1.9-4.2 3.9h7.5z"/><path id="XMLID_241_" class="st1" d="M124.7 123.1c-1.9 1.2-5 2-7.3 2-6.3 0-10.8-3.6-10.8-10.1 0-6.7 4.5-11.1 11.2-11.1 2.4 0 5.2.7 6.7 1.7l-2.2 4.5c-1-.4-2.1-.8-3.2-.8-3.4 0-5.7 2-5.7 5.3 0 2.8 2.2 5.1 5.1 5.1 1.3 0 2.6-.6 3.7-1.1l2.5 4.5z"/><path id="XMLID_240_" class="st1" d="M127.3 104.7h3.1V98h6.6l-.2 6.7h5.6l-.1 4.9h-5.6c0 2.7-.2 5.6-.2 7.3 0 1.7.4 2.5 2 2.5.9 0 1.7-.5 2.5-.9l1.5 4.6c-2 1.2-4.4 2-6.7 2-5.5 0-5.8-3.5-5.8-8 0-2.4.2-4.9.2-7.5h-2.9v-4.9z"/><path id="XMLID_239_" class="st1" d="M145.9 104.7h6.8v2.8h.1c1-1.7 2.4-3.3 5-3.3.7 0 1.5.1 2.2.2l-.9 6.7c-.7-.2-1.4-.4-2.4-.4-2.3 0-4 1.9-4 2.3l-.1 11.4h-6.8l.1-19.7z"/><path class="st1" d="M172.4 103.9c7.3 0 11.1 4.6 11.1 10.6s-3.8 10.6-11.1 10.6-11.1-4.6-11.1-10.6c0-5.9 3.8-10.6 11.1-10.6zm0 16.1c3.3 0 4.2-2.8 4.2-5.4 0-2.6-1-5.4-4.2-5.4-3.3 0-4.2 2.8-4.2 5.4-.1 2.5.9 5.4 4.2 5.4z"/><path id="XMLID_236_" class="st1" d="M187.2 104.7h6.8v2.2c1.6-1.5 4-2.9 6.4-2.9 4.2 0 6.5 2.3 6.5 7.7 0 4 0 8.4-.1 12.7H200c0-3.8.1-7.6.1-11.7 0-1.6-.4-2.9-2.5-2.9-1.1 0-2.7.9-3.6 1.8v12.8h-7l.2-19.7z"/><path id="XMLID_235_" class="st1" d="M105.3 63.9l8.6-28.4h7.7L113 63.9h-7.7z"/><path id="XMLID_234_" class="st1" d="M101.9 35.5L95 47.6c-1.8 3.2-2.8 4.8-3.3 6.7h-.1c.1-2.5-.2-5.6-.3-7.4l-.8-11.4h-13l-.1.8c3.3 0 5.3 1.7 5.8 5.1L85.7 64h8l16.1-28.4h-7.9v-.1z"/><path class="st1" d="M161.7 63.9l-.2-4.2h-9.6l-2 4.2h-8.4l15.1-28.4H167l2.6 28.4h-7.9zm-.9-16.7c-.1-2.1-.2-5 0-6.7h-.1c-.5 1.4-2.5 5.7-3.4 7.7l-2.9 6.2h6.7l-.3-7.2z"/><path id="XMLID_231_" class="st1" d="M129.7 64.7c-5.4 0-9-1.7-11.6-3.3l3.7-5.6c2.3 1.3 4.1 2.8 8.3 2.8 1.3 0 2.6-.3 3.4-1.6 1.1-1.9-.2-2.8-3.3-4.5l-1.5-1c-4.5-3-6.4-5.9-4.3-11 1.3-3.2 4.9-5.7 10.7-5.7 4 0 7.8 1.7 10 3.4l-4.2 4.9c-2.1-1.7-3.9-2.6-6-2.6-1.6 0-2.9.6-3.3 1.5-.8 1.6.3 2.7 2.6 4.1l1.8 1.1c5.4 3.4 6.7 7 5.3 10.3-2.3 5.9-6.8 7.2-11.6 7.2z"/></g></g></svg>